<svg width="80" height="80" viewBox="0 0 80 80" fill="none" xmlns="http://www.w3.org/2000/svg">
<circle cx="40" cy="40" r="40" fill="#E7CFF5"/>
<path fill-rule="evenodd" clip-rule="evenodd" d="M53.7338 29.6275H25.4878L32.1016 22.5344C32.5508 22.2124 32.7666 21.6368 32.6461 21.0819C32.5256 20.5269 32.0932 20.1049 31.555 20.0168C31.0167 19.9287 30.4815 20.1925 30.2043 20.6824L21.3386 30.109C20.8871 30.6362 20.8871 31.4337 21.3386 31.961L30.2043 41.369C30.4505 41.6364 30.7889 41.7898 31.1441 41.795C31.497 41.7967 31.8358 41.6499 32.0838 41.3876C32.6024 40.8453 32.6024 39.9667 32.0838 39.4245L25.5055 32.4054H53.7338C55.2155 32.3848 56.4353 33.6174 56.4644 35.1649V54.444C56.4553 55.2005 56.155 55.9213 55.6313 56.4439C55.1076 56.9665 54.4045 57.247 53.6806 57.222H45.5596C44.8252 57.222 44.2298 57.8439 44.2298 58.611C44.2298 59.3781 44.8252 60 45.5596 60H53.6806C56.6184 60 59 57.5125 59 54.444V35.1834C59.0001 32.1365 56.6508 29.6579 53.7338 29.6275Z" fill="#700AAB"/>
</svg>
