<svg width="36" height="40" viewBox="0 0 36 40" fill="none" xmlns="http://www.w3.org/2000/svg">
<path fill-rule="evenodd" clip-rule="evenodd" d="M35.9295 35.9963L32.7619 18.5884C32.4367 17.0455 31.0646 15.9531 29.4947 15.9873H19.5338C19.5427 15.9343 19.5427 15.8802 19.5338 15.8272V1.60073C19.5338 1.02884 19.23 0.500399 18.7369 0.214457C18.2438 -0.0714856 17.6363 -0.0714856 17.1432 0.214457C16.6501 0.500399 16.3463 1.02884 16.3463 1.60073V15.7471C16.3374 15.8001 16.3374 15.8542 16.3463 15.9072H6.38537C4.83973 15.9715 3.55084 17.1157 3.29748 18.6485L0.0701413 35.9963C-0.133501 36.9737 0.111493 37.9913 0.737285 38.7673C1.36308 39.5433 2.30325 39.9953 3.29748 39.9981H32.5826C33.5976 40.0322 34.5719 39.5959 35.2251 38.8149C35.8784 38.0338 36.138 36.9946 35.9295 35.9963ZM29.5545 19.1887L30.1521 22.5702H5.90724L6.5049 19.1887H29.5545ZM23.3389 36.5966V32.3947C23.3389 31.4885 22.6075 30.754 21.7053 30.754C20.8031 30.754 20.0717 31.4885 20.0717 32.3947V36.5966H16.0076V32.3947C16.0076 31.4885 15.2762 30.754 14.374 30.754C13.4718 30.754 12.7404 31.4885 12.7404 32.3947V36.5966H3.35725L5.34943 25.7317C5.46212 25.7413 5.57542 25.7413 5.6881 25.7317H30.3314C30.4441 25.7413 30.5574 25.7413 30.6701 25.7317L32.6623 36.5966H23.3389Z" fill="#700AAB"/>
</svg>
