<svg width="80" height="80" viewBox="0 0 80 80" fill="none" xmlns="http://www.w3.org/2000/svg">
<circle cx="40" cy="40" r="40" fill="#E7CFF5"/>
<path fill-rule="evenodd" clip-rule="evenodd" d="M59.9995 43.0591C59.9765 40.5079 58.2522 38.2924 55.8 37.6632C55.4642 28.9898 48.4462 22.1031 39.8381 22C31.182 22.1153 24.1447 29.0706 23.8576 37.7943C21.2816 38.5931 19.6682 41.1667 20.0578 43.8555C20.4474 46.5443 22.7235 48.545 25.4185 48.5674C28.1662 48.5192 30.4538 46.427 30.7687 43.6744C31.0835 40.9217 29.3282 38.3594 26.6635 37.6819C26.978 30.5491 32.7574 24.9026 39.8381 24.8104C46.9631 24.9155 52.7561 30.6329 53.0127 37.813C50.6102 38.6004 49.0564 40.9459 49.2552 43.4851C49.4541 46.0244 51.3536 48.095 53.8489 48.4925C53.1985 51.1342 50.3555 52.3333 47.1408 53.6823L45.2826 54.5067C44.834 54.0985 44.2517 53.8716 43.6474 53.8696C42.6075 53.816 41.6401 54.4062 41.2048 55.3599C40.7694 56.3135 40.954 57.4384 41.6707 58.1999C42.3873 58.9615 43.4917 59.2062 44.4591 58.8178C45.4264 58.4294 46.0617 57.4863 46.063 56.4365C46.0733 56.3556 46.0733 56.2737 46.063 56.1929L47.9212 55.4247C51.3403 53.9821 55.1496 52.3333 55.8 48.455C58.2791 47.868 60.0235 45.6266 59.9995 43.0591ZM28.0199 43.0591C28.0304 44.5244 26.8715 45.7263 25.4185 45.757C24.0219 45.6398 22.9477 44.4627 22.9477 43.0497C22.9477 41.6367 24.0219 40.4596 25.4185 40.3424C26.8788 40.3731 28.0407 41.5865 28.0199 43.0591ZM54.6293 45.757C53.5289 45.803 52.5115 45.1689 52.0601 44.1559C51.6088 43.1429 51.8144 41.9549 52.5793 41.1559C53.3442 40.3569 54.5145 40.1077 55.5345 40.5268C56.5545 40.9458 57.2189 41.9486 57.2122 43.0591C57.2229 44.5173 56.075 45.7163 54.6293 45.757Z" fill="#700AAB"/>
</svg>
