<svg width="470" height="457" viewBox="0 0 470 457" fill="none" xmlns="http://www.w3.org/2000/svg">
<path fill-rule="evenodd" clip-rule="evenodd" d="M204.8 58.2883C203.439 29.0841 180.857 4.44691 151.743 0.584204C121.03 -3.49068 93.0583 15.433 84.5851 43.5571C83.5937 46.8459 85.7961 50.2536 89.1877 50.894L106.692 54.1981C109.509 54.7298 112.409 53.2369 113.366 50.5489C118.185 37.0115 131.866 27.9964 146.964 29.635C162.611 31.3325 174.929 44.7369 175.309 60.3986C175.744 78.2576 161.277 92.9223 143.433 92.9223V92.9377H136.221C132.956 92.9377 130.311 95.5707 130.311 98.8186V162.808C130.311 166.057 132.956 168.69 136.221 168.69H150.659C153.922 168.69 156.568 166.057 156.568 162.808V125.429C156.568 122.851 158.251 120.554 160.736 119.827C187.091 112.112 206.151 87.274 204.8 58.2883Z" fill="#197278"/>
<path fill-rule="evenodd" clip-rule="evenodd" d="M144 195C136.82 195 131 200.821 131 208C131 215.18 136.82 221 144 221C151.18 221 157 215.18 157 208C157 200.821 151.18 195 144 195Z" fill="#197278"/>
<path fill-rule="evenodd" clip-rule="evenodd" d="M131.001 393C110.566 393 94 409.424 94 429.684V446.292C94 451.654 98.3843 456 103.793 456H158.207C163.616 456 168 451.654 168 446.292V429.684C168 409.424 151.434 393 131.001 393Z" fill="#BA5624"/>
<path fill-rule="evenodd" clip-rule="evenodd" d="M14.8343 244.55L13.8128 241.228C11.9524 235.174 15.0552 227.977 15.6808 221.825L16.0958 217.743C16.3474 215.284 16.0052 212.387 15.1931 210.08L14.3529 207.69C12.1708 201.484 7.40048 193.708 8.02742 187.049L8.43218 182.745C8.63775 180.55 8.3811 178.011 7.73374 175.851L5.39073 168.04C3.63251 162.178 5.4801 155.287 6.0266 149.316L6.50286 144.1C6.73142 141.586 6.35347 138.654 5.50564 136.368L4.71272 134.228C2.66338 128.7 -0.681962 121.512 0.122452 115.717C0.615315 112.153 1.91515 109.882 3.56611 109.694L44.9973 105L61 246.34L19.9953 250.987C18.1183 251.201 16.106 248.689 14.8343 244.55Z" fill="#143642"/>
<path fill-rule="evenodd" clip-rule="evenodd" d="M191.454 246.8H88.5048L73.26 112.582C72.5864 106.651 67.259 102.394 61.3615 103.071L33 106.326L49.6457 252.88V297.872V371.26C49.6457 389.341 64.2259 404 82.2111 404H173.435C191.421 404 206 389.341 206 371.26V261.425C206 253.348 199.488 246.8 191.454 246.8Z" fill="#E3B5A4"/>
<path fill-rule="evenodd" clip-rule="evenodd" d="M76.3962 373H69.6038C69.2705 373 69 372.776 69 372.5C69 372.224 69.2705 372 69.6038 372H76.3962C76.7295 372 77 372.224 77 372.5C77 372.776 76.7295 373 76.3962 373Z" fill="#143642"/>
<path fill-rule="evenodd" clip-rule="evenodd" d="M67.3962 340H60.6038C60.2705 340 60 339.776 60 339.5C60 339.224 60.2705 339 60.6038 339H67.3962C67.7295 339 68 339.224 68 339.5C68 339.776 67.7295 340 67.3962 340Z" fill="#143642"/>
<path fill-rule="evenodd" clip-rule="evenodd" d="M67.3962 327H60.6038C60.2705 327 60 326.776 60 326.5C60 326.224 60.2705 326 60.6038 326H67.3962C67.7295 326 68 326.224 68 326.5C68 326.776 67.7295 327 67.3962 327Z" fill="#143642"/>
<path fill-rule="evenodd" clip-rule="evenodd" d="M67.3962 314H60.6038C60.2705 314 60 313.776 60 313.5C60 313.224 60.2705 313 60.6038 313H67.3962C67.7295 313 68 313.224 68 313.5C68 313.776 67.7295 314 67.3962 314Z" fill="#143642"/>
<path fill-rule="evenodd" clip-rule="evenodd" d="M71.3961 357H64.6039C64.2705 357 64 356.776 64 356.5C64 356.224 64.2705 356 64.6039 356H71.3961C71.7295 356 72 356.224 72 356.5C72 356.776 71.7295 357 71.3961 357Z" fill="#143642"/>
<path fill-rule="evenodd" clip-rule="evenodd" d="M93.3962 382H86.6038C86.2705 382 86 381.776 86 381.5C86 381.224 86.2705 381 86.6038 381H93.3962C93.7295 381 94 381.224 94 381.5C94 381.776 93.7295 382 93.3962 382Z" fill="#143642"/>
<path fill-rule="evenodd" clip-rule="evenodd" d="M84.3961 348H77.6039C77.2705 348 77 347.776 77 347.5C77 347.224 77.2705 347 77.6039 347H84.3961C84.7295 347 85 347.224 85 347.5C85 347.776 84.7295 348 84.3961 348Z" fill="#143642"/>
<path fill-rule="evenodd" clip-rule="evenodd" d="M84.3961 335H77.6039C77.2705 335 77 334.776 77 334.5C77 334.224 77.2705 334 77.6039 334H84.3961C84.7295 334 85 334.224 85 334.5C85 334.776 84.7295 335 84.3961 335Z" fill="#143642"/>
<path fill-rule="evenodd" clip-rule="evenodd" d="M88.3962 365H81.6038C81.2705 365 81 364.776 81 364.5C81 364.224 81.2705 364 81.6038 364H88.3962C88.7295 364 89 364.224 89 364.5C89 364.776 88.7295 365 88.3962 365Z" fill="#143642"/>
<path fill-rule="evenodd" clip-rule="evenodd" d="M109.396 390H102.604C102.271 390 102 389.776 102 389.5C102 389.224 102.271 389 102.604 389H109.396C109.729 389 110 389.224 110 389.5C110 389.776 109.729 390 109.396 390Z" fill="#143642"/>
<path fill-rule="evenodd" clip-rule="evenodd" d="M131.396 390H124.604C124.27 390 124 389.776 124 389.5C124 389.224 124.27 389 124.604 389H131.396C131.73 389 132 389.224 132 389.5C132 389.776 131.73 390 131.396 390Z" fill="#143642"/>
<path fill-rule="evenodd" clip-rule="evenodd" d="M131.396 373H124.604C124.27 373 124 372.776 124 372.5C124 372.224 124.27 372 124.604 372H131.396C131.73 372 132 372.224 132 372.5C132 372.776 131.73 373 131.396 373Z" fill="#143642"/>
<path fill-rule="evenodd" clip-rule="evenodd" d="M101.396 357H94.6038C94.2705 357 94 356.776 94 356.5C94 356.224 94.2705 356 94.6038 356H101.396C101.73 356 102 356.224 102 356.5C102 356.776 101.73 357 101.396 357Z" fill="#143642"/>
<path fill-rule="evenodd" clip-rule="evenodd" d="M105.396 373H98.6038C98.2705 373 98 372.776 98 372.5C98 372.224 98.2705 372 98.6038 372H105.396C105.73 372 106 372.224 106 372.5C106 372.776 105.73 373 105.396 373Z" fill="#143642"/>
<path fill-rule="evenodd" clip-rule="evenodd" d="M186.396 373H179.604C179.271 373 179 372.776 179 372.5C179 372.224 179.271 372 179.604 372H186.396C186.729 372 187 372.224 187 372.5C187 372.776 186.729 373 186.396 373Z" fill="#143642"/>
<path fill-rule="evenodd" clip-rule="evenodd" d="M195.396 340H188.604C188.271 340 188 339.776 188 339.5C188 339.224 188.271 339 188.604 339H195.396C195.729 339 196 339.224 196 339.5C196 339.776 195.729 340 195.396 340Z" fill="#143642"/>
<path fill-rule="evenodd" clip-rule="evenodd" d="M195.396 327H188.604C188.271 327 188 326.776 188 326.5C188 326.224 188.271 326 188.604 326H195.396C195.729 326 196 326.224 196 326.5C196 326.776 195.729 327 195.396 327Z" fill="#143642"/>
<path fill-rule="evenodd" clip-rule="evenodd" d="M195.396 314H188.604C188.271 314 188 313.776 188 313.5C188 313.224 188.271 313 188.604 313H195.396C195.729 313 196 313.224 196 313.5C196 313.776 195.729 314 195.396 314Z" fill="#143642"/>
<path fill-rule="evenodd" clip-rule="evenodd" d="M190.396 357H183.604C183.27 357 183 356.776 183 356.5C183 356.224 183.27 356 183.604 356H190.396C190.73 356 191 356.224 191 356.5C191 356.776 190.73 357 190.396 357Z" fill="#143642"/>
<path fill-rule="evenodd" clip-rule="evenodd" d="M169.396 382H162.604C162.27 382 162 381.776 162 381.5C162 381.224 162.27 381 162.604 381H169.396C169.73 381 170 381.224 170 381.5C170 381.776 169.73 382 169.396 382Z" fill="#143642"/>
<path fill-rule="evenodd" clip-rule="evenodd" d="M178.396 348H171.604C171.27 348 171 347.776 171 347.5C171 347.224 171.27 347 171.604 347H178.396C178.73 347 179 347.224 179 347.5C179 347.776 178.73 348 178.396 348Z" fill="#143642"/>
<path fill-rule="evenodd" clip-rule="evenodd" d="M178.396 335H171.604C171.27 335 171 334.776 171 334.5C171 334.224 171.27 334 171.604 334H178.396C178.73 334 179 334.224 179 334.5C179 334.776 178.73 335 178.396 335Z" fill="#143642"/>
<path fill-rule="evenodd" clip-rule="evenodd" d="M173.396 365H166.604C166.271 365 166 364.776 166 364.5C166 364.224 166.271 364 166.604 364H173.396C173.729 364 174 364.224 174 364.5C174 364.776 173.729 365 173.396 365Z" fill="#143642"/>
<path fill-rule="evenodd" clip-rule="evenodd" d="M152.396 390H145.604C145.27 390 145 389.776 145 389.5C145 389.224 145.27 389 145.604 389H152.396C152.73 389 153 389.224 153 389.5C153 389.776 152.73 390 152.396 390Z" fill="#143642"/>
<path fill-rule="evenodd" clip-rule="evenodd" d="M161.396 357H154.604C154.27 357 154 356.776 154 356.5C154 356.224 154.27 356 154.604 356H161.396C161.73 356 162 356.224 162 356.5C162 356.776 161.73 357 161.396 357Z" fill="#143642"/>
<path fill-rule="evenodd" clip-rule="evenodd" d="M156.396 373H149.604C149.271 373 149 372.776 149 372.5C149 372.224 149.271 372 149.604 372H156.396C156.729 372 157 372.224 157 372.5C157 372.776 156.729 373 156.396 373Z" fill="#143642"/>
<path fill-rule="evenodd" clip-rule="evenodd" d="M445.571 58.2556C444.211 29.0514 421.629 4.4142 392.514 0.551489C361.802 -3.5234 333.831 15.4003 325.357 43.5244C324.365 46.8132 326.569 50.2209 329.959 50.8613L347.464 54.1654C350.28 54.6971 353.18 53.2042 354.138 50.5162C358.957 36.9788 372.637 27.9637 387.737 29.6023C403.383 31.2998 415.701 44.7042 416.082 60.3659C416.516 78.2249 402.048 92.8896 384.204 92.8896V92.9049H376.992C373.729 92.9049 371.082 95.538 371.082 98.7859V162.775C371.082 166.024 373.729 168.657 376.992 168.657H391.43C394.695 168.657 397.339 166.024 397.339 162.775V125.397C397.339 122.819 399.024 120.522 401.508 119.794C427.862 112.079 446.922 87.2413 445.571 58.2556Z" fill="#941C2F"/>
<path fill-rule="evenodd" clip-rule="evenodd" d="M384 194.967C376.82 194.967 371 200.788 371 207.967C371 215.148 376.82 220.967 384 220.967C391.18 220.967 397 215.148 397 207.967C397 200.788 391.18 194.967 384 194.967Z" fill="#941C2F"/>
<path fill-rule="evenodd" clip-rule="evenodd" d="M390.999 393C370.566 393 354 409.424 354 429.684V446.292C354 451.654 358.384 456 363.793 456H418.207C423.616 456 428 451.654 428 446.292V429.684C428 409.424 411.434 393 390.999 393Z" fill="#84A07C"/>
<mask id="mask0_0_426" style="mask-type:alpha" maskUnits="userSpaceOnUse" x="271" y="135" width="199" height="269">
<path fill-rule="evenodd" clip-rule="evenodd" d="M271.063 135.264H469.808V403.986H271.063V135.264Z" fill="white"/>
</mask>
<g mask="url(#mask0_0_426)">
<path fill-rule="evenodd" clip-rule="evenodd" d="M409.553 246.871H373.456C366.859 246.871 360.518 247.95 354.579 249.915L308.322 140.289C306.663 135.885 300.809 134.024 295.247 136.133L278.571 142.455C273.01 144.562 269.845 149.842 271.504 154.247L319.564 280.287C315.5 288.424 313.2 297.601 313.2 307.321V325.428C313.2 368.814 348.258 403.986 391.504 403.986C434.751 403.986 469.808 368.814 469.808 325.428V307.321C469.808 273.936 442.83 246.871 409.553 246.871Z" fill="#E3B5A4"/>
</g>
<path fill-rule="evenodd" clip-rule="evenodd" d="M346.327 371H339.673C339.3 371 339 370.776 339 370.5C339 370.224 339.3 370 339.673 370H346.327C346.699 370 347 370.224 347 370.5C347 370.776 346.699 371 346.327 371Z" fill="#143642"/>
<path fill-rule="evenodd" clip-rule="evenodd" d="M338.327 341H331.673C331.3 341 331 340.776 331 340.5C331 340.224 331.3 340 331.673 340H338.327C338.699 340 339 340.224 339 340.5C339 340.776 338.699 341 338.327 341Z" fill="#143642"/>
<path fill-rule="evenodd" clip-rule="evenodd" d="M338.327 330H331.673C331.3 330 331 329.776 331 329.5C331 329.224 331.3 329 331.673 329H338.327C338.699 329 339 329.224 339 329.5C339 329.776 338.699 330 338.327 330Z" fill="#143642"/>
<path fill-rule="evenodd" clip-rule="evenodd" d="M338.327 319H331.673C331.3 319 331 318.776 331 318.5C331 318.224 331.3 318 331.673 318H338.327C338.699 318 339 318.224 339 318.5C339 318.776 338.699 319 338.327 319Z" fill="#143642"/>
<path fill-rule="evenodd" clip-rule="evenodd" d="M342.327 356H335.673C335.3 356 335 355.776 335 355.5C335 355.224 335.3 355 335.673 355H342.327C342.699 355 343 355.224 343 355.5C343 355.776 342.699 356 342.327 356Z" fill="#143642"/>
<path fill-rule="evenodd" clip-rule="evenodd" d="M361.327 378H354.673C354.3 378 354 377.776 354 377.5C354 377.224 354.3 377 354.673 377H361.327C361.699 377 362 377.224 362 377.5C362 377.776 361.699 378 361.327 378Z" fill="#143642"/>
<path fill-rule="evenodd" clip-rule="evenodd" d="M353.327 349H346.673C346.3 349 346 348.776 346 348.5C346 348.224 346.3 348 346.673 348H353.327C353.699 348 354 348.224 354 348.5C354 348.776 353.699 349 353.327 349Z" fill="#143642"/>
<path fill-rule="evenodd" clip-rule="evenodd" d="M353.327 337H346.673C346.3 337 346 336.776 346 336.5C346 336.224 346.3 336 346.673 336H353.327C353.699 336 354 336.224 354 336.5C354 336.776 353.699 337 353.327 337Z" fill="#143642"/>
<path fill-rule="evenodd" clip-rule="evenodd" d="M357.327 363H350.673C350.3 363 350 362.776 350 362.5C350 362.224 350.3 362 350.673 362H357.327C357.698 362 358 362.224 358 362.5C358 362.776 357.698 363 357.327 363Z" fill="#143642"/>
<path fill-rule="evenodd" clip-rule="evenodd" d="M376.327 386H369.673C369.3 386 369 385.776 369 385.5C369 385.224 369.3 385 369.673 385H376.327C376.699 385 377 385.224 377 385.5C377 385.776 376.699 386 376.327 386Z" fill="#143642"/>
<path fill-rule="evenodd" clip-rule="evenodd" d="M394.327 386H387.673C387.3 386 387 385.776 387 385.5C387 385.224 387.3 385 387.673 385H394.327C394.699 385 395 385.224 395 385.5C395 385.776 394.699 386 394.327 386Z" fill="#143642"/>
<path fill-rule="evenodd" clip-rule="evenodd" d="M394.327 371H387.673C387.3 371 387 370.776 387 370.5C387 370.224 387.3 370 387.673 370H394.327C394.699 370 395 370.224 395 370.5C395 370.776 394.699 371 394.327 371Z" fill="#143642"/>
<path fill-rule="evenodd" clip-rule="evenodd" d="M368.327 356H361.673C361.3 356 361 355.776 361 355.5C361 355.224 361.3 355 361.673 355H368.327C368.699 355 369 355.224 369 355.5C369 355.776 368.699 356 368.327 356Z" fill="#143642"/>
<path fill-rule="evenodd" clip-rule="evenodd" d="M372.327 371H365.673C365.3 371 365 370.776 365 370.5C365 370.224 365.3 370 365.673 370H372.327C372.699 370 373 370.224 373 370.5C373 370.776 372.699 371 372.327 371Z" fill="#143642"/>
<path fill-rule="evenodd" clip-rule="evenodd" d="M443.327 371H436.673C436.3 371 436 370.776 436 370.5C436 370.224 436.3 370 436.673 370H443.327C443.699 370 444 370.224 444 370.5C444 370.776 443.699 371 443.327 371Z" fill="#143642"/>
<path fill-rule="evenodd" clip-rule="evenodd" d="M451.327 341H444.673C444.3 341 444 340.776 444 340.5C444 340.224 444.3 340 444.673 340H451.327C451.699 340 452 340.224 452 340.5C452 340.776 451.699 341 451.327 341Z" fill="#143642"/>
<path fill-rule="evenodd" clip-rule="evenodd" d="M451.327 330H444.673C444.3 330 444 329.776 444 329.5C444 329.224 444.3 329 444.673 329H451.327C451.699 329 452 329.224 452 329.5C452 329.776 451.699 330 451.327 330Z" fill="#143642"/>
<path fill-rule="evenodd" clip-rule="evenodd" d="M451.327 319H444.673C444.3 319 444 318.776 444 318.5C444 318.224 444.3 318 444.673 318H451.327C451.699 318 452 318.224 452 318.5C452 318.776 451.699 319 451.327 319Z" fill="#143642"/>
<path fill-rule="evenodd" clip-rule="evenodd" d="M447.327 356H440.673C440.3 356 440 355.776 440 355.5C440 355.224 440.3 355 440.673 355H447.327C447.699 355 448 355.224 448 355.5C448 355.776 447.699 356 447.327 356Z" fill="#143642"/>
<path fill-rule="evenodd" clip-rule="evenodd" d="M428.327 378H421.673C421.3 378 421 377.776 421 377.5C421 377.224 421.3 377 421.673 377H428.327C428.699 377 429 377.224 429 377.5C429 377.776 428.699 378 428.327 378Z" fill="#143642"/>
<path fill-rule="evenodd" clip-rule="evenodd" d="M436.327 349H429.673C429.3 349 429 348.776 429 348.5C429 348.224 429.3 348 429.673 348H436.327C436.699 348 437 348.224 437 348.5C437 348.776 436.699 349 436.327 349Z" fill="#143642"/>
<path fill-rule="evenodd" clip-rule="evenodd" d="M436.327 337H429.673C429.3 337 429 336.776 429 336.5C429 336.224 429.3 336 429.673 336H436.327C436.699 336 437 336.224 437 336.5C437 336.776 436.699 337 436.327 337Z" fill="#143642"/>
<path fill-rule="evenodd" clip-rule="evenodd" d="M432.327 363H425.673C425.3 363 425 362.776 425 362.5C425 362.224 425.3 362 425.673 362H432.327C432.698 362 433 362.224 433 362.5C433 362.776 432.698 363 432.327 363Z" fill="#143642"/>
<path fill-rule="evenodd" clip-rule="evenodd" d="M413.327 386H406.673C406.3 386 406 385.776 406 385.5C406 385.224 406.3 385 406.673 385H413.327C413.699 385 414 385.224 414 385.5C414 385.776 413.699 386 413.327 386Z" fill="#143642"/>
<path fill-rule="evenodd" clip-rule="evenodd" d="M421.327 356H414.673C414.3 356 414 355.776 414 355.5C414 355.224 414.3 355 414.673 355H421.327C421.699 355 422 355.224 422 355.5C422 355.776 421.699 356 421.327 356Z" fill="#143642"/>
<path fill-rule="evenodd" clip-rule="evenodd" d="M417.327 371H410.673C410.3 371 410 370.776 410 370.5C410 370.224 410.3 370 410.673 370H417.327C417.698 370 418 370.224 418 370.5C418 370.776 417.698 371 417.327 371Z" fill="#143642"/>
</svg>
