<svg width="371" height="227" viewBox="0 0 371 227" fill="none" xmlns="http://www.w3.org/2000/svg">
<path fill-rule="evenodd" clip-rule="evenodd" d="M279.568 141.812L294.658 121.166C297.276 117.584 295.917 112.505 291.857 110.701L62.0051 8.51541C60.7751 8.12633 59.5418 7.96862 58.3419 8.00511C52.4134 7.82784 47.1352 12.5281 47.0698 18.8238L31.0006 120.225C30.9522 124.815 33.7835 128.945 38.0885 130.568L266.215 147.956C271.433 148.354 276.486 146.029 279.568 141.812Z" fill="#FFE66D"/>
<path fill-rule="evenodd" clip-rule="evenodd" d="M283.626 200.651L273.838 221.149C272.933 223.04 270.671 223.837 268.779 222.936L246.442 212.217C244.708 211.38 242.603 211.778 241.335 213.24C238.168 216.888 234.849 219.614 231.527 221.637C216.086 231.056 200.648 225.203 200.648 225.203C200.648 225.203 143.56 197.803 124.532 188.672C121.064 187.009 121.852 182.254 122.856 180.396C124.608 177.132 128.41 175.76 131.826 177.226C148.701 184.471 200.487 203.343 200.487 203.343C201.848 203.86 203.333 202.957 203.513 201.511L204.03 197.258L205.348 186.345C205.498 185.055 204.531 183.896 203.237 183.827L187.934 182.988L168.064 181.903C165.598 182.186 163.267 181.381 161.542 179.851C160.052 178.529 159.025 176.671 158.775 174.531C158.248 169.924 161.537 165.759 166.131 165.22C166.131 165.22 166.644 165.114 167.562 164.926C173.864 163.658 199.319 158.744 208.492 160.302C226.567 163.372 270.329 188.755 282.139 195.744C283.833 196.75 284.476 198.872 283.626 200.651Z" fill="#DD6031"/>
<path fill-rule="evenodd" clip-rule="evenodd" d="M308.834 206.306L331.407 206.998C333.491 207.06 335.229 205.413 335.297 203.315L336.047 178.531C336.1 176.604 337.414 174.915 339.285 174.456C343.954 173.313 347.879 171.61 351.183 169.582C366.559 160.165 368.45 143.748 368.45 143.748C368.45 143.748 370.36 80.3992 370.998 59.2859C371.115 55.4385 366.557 53.9591 364.457 54.0009C360.774 54.0622 357.825 56.8154 357.558 60.5264C356.238 78.8604 349.223 133.582 349.223 133.582C349.058 135.03 347.58 135.937 346.221 135.433L342.231 133.943L331.993 130.112C330.786 129.653 330.205 128.262 330.735 127.079L336.991 113.082L345.119 94.9081C346.495 92.845 346.85 90.4013 346.288 88.1645C345.803 86.2333 344.631 84.468 342.856 83.264C339.03 80.6832 333.85 81.6985 331.272 85.538C331.272 85.538 330.944 85.9461 330.359 86.6766C326.358 91.7012 310.38 112.092 307.562 120.967C302.009 138.454 304.41 189.023 305.181 202.734C305.295 204.702 306.874 206.246 308.834 206.306Z" fill="#DD6031"/>
<path fill-rule="evenodd" clip-rule="evenodd" d="M270.97 139.386C271.051 139.819 270.969 140.284 270.7 140.674L270.229 141.365L268.585 143.768C268.419 144.011 268.089 144.073 267.846 143.907L265.442 142.264L264.75 141.792C263.965 141.256 263.764 140.184 264.301 139.399C264.569 139.007 264.972 138.759 265.405 138.678C265.838 138.596 266.303 138.681 266.695 138.95L267.386 139.422L267.813 138.796C268.36 137.992 269.497 137.739 270.287 138.308C270.658 138.576 270.892 138.967 270.97 139.386Z" fill="#143642"/>
<path fill-rule="evenodd" clip-rule="evenodd" d="M261 124.129C260.997 124.664 260.781 125.2 260.349 125.606L259.593 126.322L256.956 128.813C256.691 129.064 256.261 129.062 255.998 128.808L253.387 126.292L252.636 125.568C251.782 124.748 251.789 123.422 252.651 122.607C253.083 122.2 253.647 121.997 254.207 122C254.768 122.003 255.33 122.211 255.755 122.622L256.506 123.345L257.192 122.696C258.072 121.862 259.555 121.821 260.404 122.683C260.805 123.089 261.003 123.61 261 124.129Z" fill="#143642"/>
<path fill-rule="evenodd" clip-rule="evenodd" d="M248.671 131.811C248.381 131.389 247.917 131.067 247.347 130.95L246.344 130.74L242.848 130.015C242.496 129.942 242.146 130.146 242.066 130.471L241.279 133.692L241.053 134.618C240.794 135.669 241.512 136.714 242.654 136.951C243.225 137.071 243.796 136.965 244.254 136.698C244.711 136.431 245.06 136.001 245.186 135.476L245.412 134.55L246.322 134.74C247.49 134.984 248.726 134.317 248.959 133.235C249.069 132.725 248.951 132.219 248.671 131.811Z" fill="#143642"/>
<path fill-rule="evenodd" clip-rule="evenodd" d="M240.996 97.7172C240.956 98.5469 240.584 99.3656 239.887 99.968L238.663 101.033L234.396 104.738C233.965 105.111 233.298 105.082 232.905 104.673L229.012 100.611L227.892 99.4433C226.621 98.1191 226.72 96.0625 228.115 94.8517C228.812 94.2457 229.703 93.9652 230.575 94.0034C231.448 94.0417 232.307 94.3986 232.94 95.0619L234.06 96.2296L235.17 95.2635C236.593 94.0238 238.903 94.0503 240.167 95.438C240.763 96.0921 241.035 96.9126 240.996 97.7172Z" fill="#143642"/>
<path fill-rule="evenodd" clip-rule="evenodd" d="M210.207 113.956C210.906 113.326 211.849 112.956 212.867 113.004L214.662 113.083L220.909 113.367C221.539 113.396 222.028 113.925 221.999 114.549L221.711 120.73L221.628 122.508C221.537 124.526 219.807 126.088 217.764 125.996C216.743 125.95 215.835 125.498 215.198 124.807C214.561 124.116 214.19 123.18 214.239 122.172L214.322 120.395L212.694 120.323C210.607 120.231 208.86 118.461 209.009 116.399C209.079 115.426 209.531 114.567 210.207 113.956Z" fill="#143642"/>
<path fill-rule="evenodd" clip-rule="evenodd" d="M208.999 70.6553C208.976 72.0262 208.43 73.3932 207.364 74.4183L205.494 76.2306L198.97 82.5345C198.312 83.1702 197.262 83.1527 196.627 82.4949L190.322 75.9712L188.509 74.0959C186.448 71.969 186.505 68.5714 188.639 66.5114C189.705 65.4805 191.09 64.9774 192.462 65.0008C193.832 65.0242 195.2 65.5748 196.225 66.6408L198.037 68.5161L199.734 66.8715C201.911 64.7629 205.538 64.7018 207.588 66.9333C208.555 67.985 209.021 69.3273 208.999 70.6553Z" fill="#143642"/>
<path fill-rule="evenodd" clip-rule="evenodd" d="M172.66 100.519C173.659 99.5579 175.029 98.9716 176.526 99.0011L179.163 99.0417L188.35 99.1978C189.277 99.2142 190.016 99.975 190 100.898L189.843 110.049L189.798 112.68C189.75 115.668 187.275 118.05 184.272 117.999C182.771 117.974 181.418 117.345 180.453 116.35C179.488 115.356 178.903 113.987 178.932 112.495L178.978 109.865L176.585 109.827C173.516 109.78 170.875 107.236 171.005 104.181C171.066 102.741 171.693 101.451 172.66 100.519Z" fill="#143642"/>
<path fill-rule="evenodd" clip-rule="evenodd" d="M169.96 47.1218C170.176 49.4323 169.518 51.8345 167.923 53.7585L165.128 57.1575L155.372 68.9843C154.388 70.1773 152.627 70.3432 151.44 69.3552L139.663 59.559L136.277 56.7427C132.428 53.5494 131.892 47.8232 135.081 43.9569C136.675 42.024 138.903 40.918 141.204 40.7009C143.505 40.4844 145.898 41.1541 147.814 42.7564L151.199 45.5727L153.736 42.488C156.989 38.5334 163.053 37.7524 166.903 41.123C168.718 42.7126 169.751 44.8828 169.96 47.1218Z" fill="#143642"/>
<path fill-rule="evenodd" clip-rule="evenodd" d="M129.122 84.04C131.433 83.8237 133.835 84.4819 135.759 86.0776L139.158 88.8727L150.984 98.628C152.177 99.6119 152.343 101.372 151.355 102.56L141.559 114.338L138.743 117.723C135.55 121.572 129.823 122.108 125.957 118.919C124.024 117.325 122.919 115.098 122.701 112.796C122.484 110.496 123.155 108.103 124.756 106.187L127.572 102.801L124.488 100.264C120.533 97.0115 119.752 90.9472 123.124 87.0963C124.713 85.2811 126.883 84.2495 129.122 84.04Z" fill="#143642"/>
<mask id="mask0_0_271" style="mask-type:alpha" maskUnits="userSpaceOnUse" x="79" y="0" width="51" height="43">
<path fill-rule="evenodd" clip-rule="evenodd" d="M79.3335 0.557129H129.837V42.4475H79.3335V0.557129Z" fill="white"/>
</mask>
<g mask="url(#mask0_0_271)">
<path fill-rule="evenodd" clip-rule="evenodd" d="M129.783 11.5322C130.077 14.6545 129.178 17.9007 127.001 20.5005L123.186 25.0938L109.87 41.0751C108.527 42.6866 106.125 42.9112 104.503 41.5763L88.4269 28.3387L83.8059 24.5329C78.5529 20.2182 77.8215 12.4794 82.1739 7.25526C84.3501 4.64317 87.3901 3.14908 90.5308 2.85579C93.6715 2.56249 96.9381 3.46805 99.5533 5.63346L104.174 9.43864L107.636 5.27084C112.077 -0.0739908 120.355 -1.1291 125.61 3.42634C128.088 5.57377 129.497 8.50675 129.783 11.5322Z" fill="#143642"/>
</g>
<path fill-rule="evenodd" clip-rule="evenodd" d="M35.09 19.9155C39.3701 21.3398 43.1216 24.3862 45.2809 28.7185L49.1134 36.333L62.4271 62.8777C63.7697 65.5549 62.6721 68.8056 59.9756 70.1383L33.2341 83.354L25.5458 87.153C16.8216 91.478 6.21376 87.9479 1.86131 79.2715C-0.314584 74.9333 -0.519092 70.1199 0.915788 65.8713C2.35067 61.6221 5.43623 57.9041 9.80129 55.7614L17.489 51.9623L14.011 45.053C9.55097 36.1927 12.9612 24.8311 22.0034 20.6425C26.2662 18.6672 30.942 18.5353 35.09 19.9155Z" fill="#143642"/>
<path fill-rule="evenodd" clip-rule="evenodd" d="M50.9292 100.996C53.0019 98.5504 56.0355 96.866 59.526 96.5541L65.6703 95.9815L87.0769 94.0171C89.2361 93.8189 91.1505 95.3687 91.3534 97.4781L93.3636 118.398L93.9421 124.413C94.6071 131.241 89.4695 137.302 82.4727 137.944C78.9736 138.266 75.6641 137.172 73.1625 135.146C70.6595 133.121 68.9439 130.148 68.6254 126.736L68.0475 120.722L62.4724 121.242C55.322 121.908 48.5207 116.771 48.03 109.769C47.7986 106.467 48.9204 103.365 50.9292 100.996Z" fill="#143642"/>
</svg>
