<svg width="370" height="252" viewBox="0 0 370 252" fill="none" xmlns="http://www.w3.org/2000/svg">
<rect x="45.5098" y="73.47" width="278.98" height="63.48" fill="#6A9964"/>
<path fill-rule="evenodd" clip-rule="evenodd" d="M362.91 166.14L324.49 137V73.47L368.21 105.73C369.334 106.56 369.998 107.873 370 109.27V162.6C369.992 164.275 369.042 165.802 367.543 166.55C366.045 167.298 364.254 167.139 362.91 166.14ZM45.49 137.015V247.52C45.501 250.001 47.5186 252.006 50 252H320C322.474 251.994 324.479 249.994 324.49 247.52V137H45.51L45.49 73.52L1.79 105.73C0.666347 106.56 0.00232996 107.873 0 109.27V162.55C0.00845395 164.225 0.958346 165.752 2.45656 166.5C3.95477 167.248 5.74641 167.089 7.09 166.09L45.49 137.015ZM45.49 137.015V137H45.51L45.49 137.015Z" fill="#95E38C"/>
<path d="M167.76 137H147.41L104 18.37C102.97 15.5352 104.397 12.3971 107.21 11.31L122.94 5.17999C124.397 4.61202 126.025 4.68026 127.43 5.36816C128.834 6.05605 129.886 7.3007 130.33 8.79999L167.76 137Z" fill="#FFE66D"/>
<path d="M167.76 137H139L98.11 31.89C97.5781 30.5202 97.6123 28.9952 98.2049 27.6505C98.7975 26.3058 99.9001 25.2517 101.27 24.72L117.27 18.48C118.66 17.9348 120.211 17.9695 121.576 18.5766C122.94 19.1836 124.004 20.3123 124.53 21.71L167.76 137Z" fill="#143642"/>
<path d="M225 137L204.87 129.22L258.48 14.8C259.769 12.0657 262.999 10.8519 265.77 12.06L281.32 18.82C282.738 19.4341 283.834 20.6135 284.344 22.0725C284.853 23.5315 284.728 25.137 284 26.5L225 137Z" fill="#FFE66D"/>
<path d="M196.2 137H225L265.86 31.89C266.961 29.0348 265.543 25.8275 262.69 24.72L246.69 18.48C245.3 17.9348 243.749 17.9695 242.385 18.5766C241.02 19.1836 239.956 20.3123 239.43 21.71L196.2 137Z" fill="#143642"/>
<path d="M203.29 137H176.45V5.68002C176.439 4.20023 177.019 2.77725 178.061 1.72617C179.102 0.675091 180.52 0.0826461 182 0.0800228L199.17 2.28052e-05C200.661 -0.0107245 202.094 0.576876 203.149 1.63129C204.203 2.68571 204.791 4.11889 204.78 5.61002L203.29 137Z" fill="#FFE66D"/>
<path d="M194.65 137H167.81L167.76 14C167.771 10.9394 170.249 8.46099 173.31 8.45002L190.53 8.37002C192.02 8.35924 193.452 8.94715 194.505 10.0019C195.558 11.0566 196.143 12.4898 196.13 13.98L194.65 137Z" fill="#143642"/>
<path d="M304.58 202.31C300.073 202.379 295.676 200.924 292.1 198.18C289.79 196.62 288.26 195.59 284.67 195.59C281.08 195.59 279.53 196.59 277.22 198.18C269.794 203.681 259.646 203.681 252.22 198.18C249.9 196.62 248.37 195.59 244.76 195.59C240.725 195.483 236.738 196.483 233.23 198.48C223.492 203.587 211.868 203.587 202.13 198.48C198.623 196.481 194.635 195.482 190.6 195.59C186.5 195.482 182.447 196.484 178.87 198.49C169.016 203.584 157.304 203.584 147.45 198.49C143.872 196.485 139.82 195.483 135.72 195.59C131.742 195.47 127.81 196.468 124.37 198.47C119.673 201.105 114.354 202.431 108.97 202.31C103.582 202.43 98.2612 201.104 93.56 198.47C90.1202 196.468 86.1882 195.47 82.21 195.59C79.11 195.59 77.76 196.59 75.71 198.08C73.14 199.97 69.93 202.31 63.87 202.31C57.81 202.31 54.59 200 52 198.08C50 196.58 48.61 195.59 45.5 195.59V186.59C51.56 186.59 54.77 188.93 57.34 190.82C59.34 192.32 60.74 193.31 63.85 193.31C66.96 193.31 68.31 192.31 70.35 190.82C72.92 188.93 76.13 186.59 82.19 186.59C87.5777 186.468 92.8994 187.794 97.6 190.43C101.049 192.459 105 193.474 109 193.36C112.975 193.478 116.903 192.481 120.34 190.48C125.042 187.847 130.363 186.521 135.75 186.64C141.23 186.519 146.647 187.836 151.46 190.46C158.802 194.327 167.578 194.327 174.92 190.46C179.732 187.835 185.149 186.517 190.63 186.64C196.061 186.517 201.427 187.839 206.18 190.47C213.384 194.322 222.036 194.322 229.24 190.47C233.993 187.839 239.359 186.517 244.79 186.64C249.306 186.571 253.713 188.026 257.3 190.77C259.61 192.33 261.14 193.36 264.75 193.36C268.36 193.36 269.89 192.36 272.21 190.77C279.636 185.269 289.784 185.269 297.21 190.77C299.52 192.33 301.05 193.36 304.64 193.36C308.23 193.36 309.76 192.36 312.07 190.77C315.646 188.026 320.043 186.571 324.55 186.64V195.64C320.96 195.64 319.43 196.64 317.13 198.23C313.529 200.971 309.104 202.409 304.58 202.31Z" fill="#143642"/>
<path d="M304.58 180.92C300.073 180.989 295.676 179.534 292.1 176.79C289.79 175.23 288.26 174.2 284.67 174.2C281.08 174.2 279.53 175.2 277.22 176.79C269.794 182.291 259.645 182.291 252.22 176.79C249.9 175.23 248.37 174.2 244.76 174.2C240.725 174.093 236.737 175.093 233.23 177.09C223.492 182.197 211.867 182.197 202.13 177.09C198.623 175.091 194.635 174.092 190.6 174.2C186.499 174.087 182.445 175.089 178.87 177.1C169.016 182.194 157.304 182.194 147.45 177.1C143.874 175.09 139.82 174.088 135.72 174.2C131.742 174.08 127.81 175.078 124.37 177.08C119.672 179.715 114.354 181.041 108.97 180.92C103.582 181.04 98.261 179.714 93.5598 177.08C90.1171 175.076 86.1813 174.078 82.1998 174.2C79.0998 174.2 77.7498 175.2 75.6998 176.69C73.1298 178.57 69.9198 180.92 63.8598 180.92C57.7998 180.92 54.5898 178.57 52.0098 176.69C50.0098 175.19 48.6198 174.2 45.5098 174.2V165.25C51.5698 165.25 54.7798 167.59 57.3498 169.48C59.3498 170.97 60.7498 171.96 63.8598 171.96C66.9698 171.96 68.3198 170.96 70.3598 169.48C72.9298 167.59 76.1398 165.25 82.1998 165.25C87.5865 165.126 92.908 166.448 97.6098 169.08C101.057 171.103 105.004 172.115 109 172C112.975 172.118 116.903 171.121 120.34 169.12C125.044 166.496 130.364 165.174 135.75 165.29C141.229 165.166 146.646 166.48 151.46 169.1C158.802 172.967 167.578 172.967 174.92 169.1C179.733 166.479 185.15 165.165 190.63 165.29C196.059 165.17 201.424 166.488 206.18 169.11C213.384 172.962 222.036 172.962 229.24 169.11C233.995 166.488 239.36 165.17 244.79 165.29C249.304 165.219 253.711 166.67 257.3 169.41C259.61 170.97 261.14 172 264.75 172C268.36 172 269.89 171 272.21 169.41C279.635 163.909 289.784 163.909 297.21 169.41C299.52 170.96 301.05 171.99 304.64 171.99C308.23 171.99 309.76 170.99 312.07 169.41C315.646 166.666 320.043 165.211 324.55 165.28V174.23C320.96 174.23 319.43 175.23 317.13 176.82C313.531 179.568 309.107 181.013 304.58 180.92Z" fill="#143642"/>
<path d="M304.58 223.7C300.073 223.769 295.676 222.314 292.1 219.57C289.79 218.02 288.26 216.99 284.67 216.99C281.08 216.99 279.53 217.99 277.22 219.58C269.794 225.081 259.645 225.081 252.22 219.58C249.9 218.02 248.37 216.99 244.76 216.99C240.725 216.883 236.737 217.883 233.23 219.88C223.49 224.98 211.869 224.98 202.13 219.88C198.617 217.888 194.627 216.893 190.59 217C186.489 216.887 182.435 217.889 178.86 219.9C169.003 224.981 157.297 224.981 147.44 219.9C143.864 217.89 139.81 216.888 135.71 217C131.732 216.88 127.8 217.878 124.36 219.88C119.67 222.495 114.368 223.814 109 223.7C103.614 223.818 98.2939 222.496 93.5898 219.87C90.1373 217.864 86.1904 216.87 82.1998 217C79.0998 217 77.7498 218 75.6998 219.48C73.1298 221.37 69.9198 223.71 63.8598 223.71C57.7998 223.71 54.5898 221.37 52.0098 219.48C49.9998 218 48.6198 217 45.5098 217V208C51.5698 208 54.7798 210.35 57.3498 212.23C59.3498 213.73 60.7498 214.72 63.8598 214.72C66.9698 214.72 68.3198 213.72 70.3598 212.23C72.9298 210.35 76.1398 208 82.1998 208C87.5875 207.878 92.9091 209.204 97.6098 211.84C101.058 213.86 105.005 214.868 109 214.75C112.975 214.868 116.903 213.871 120.34 211.87C125.027 209.234 130.333 207.898 135.71 208C141.19 207.879 146.607 209.196 151.42 211.82C158.762 215.687 167.538 215.687 174.88 211.82C179.692 209.195 185.109 207.877 190.59 208C196.02 207.882 201.385 209.204 206.14 211.83C213.344 215.682 221.996 215.682 229.2 211.83C233.954 209.204 239.319 207.882 244.75 208C249.265 207.931 253.673 209.386 257.26 212.13C259.57 213.69 261.1 214.72 264.71 214.72C268.32 214.72 269.85 213.72 272.17 212.13C279.595 206.629 289.744 206.629 297.17 212.13C299.48 213.69 301.01 214.72 304.6 214.72C308.19 214.72 309.72 213.72 312.03 212.13C315.6 209.391 319.99 207.936 324.49 208V217C320.9 217 319.37 218 317.07 219.58C313.49 222.322 309.089 223.774 304.58 223.7Z" fill="#143642"/>
</svg>
