<svg width="470" height="328" viewBox="0 0 470 328" fill="none" xmlns="http://www.w3.org/2000/svg">
<path fill-rule="evenodd" clip-rule="evenodd" d="M423.196 328H347.805C342.917 328 338.562 324.935 336.935 320.351L301 219H470L434.064 320.351C432.44 324.935 428.084 328 423.196 328Z" fill="#D4B057"/>
<mask id="mask0_0_335" style="mask-type:alpha" maskUnits="userSpaceOnUse" x="301" y="219" width="169" height="109">
<path fill-rule="evenodd" clip-rule="evenodd" d="M423.196 328H347.805C342.917 328 338.562 324.935 336.935 320.351L301 219H470L434.064 320.351C432.44 324.935 428.084 328 423.196 328Z" fill="white"/>
</mask>
<g mask="url(#mask0_0_335)">
<path fill-rule="evenodd" clip-rule="evenodd" d="M431.629 263.017C426.432 263.017 423.703 264.725 421.296 266.232C418.986 267.68 416.992 268.929 412.748 268.929C408.506 268.929 406.512 267.68 404.202 266.232C401.795 264.725 399.067 263.017 393.87 263.017C388.673 263.017 385.946 264.725 383.541 266.232C381.229 267.68 379.235 268.929 374.992 268.929C370.751 268.929 368.755 267.68 366.446 266.232C364.04 264.725 361.312 263.017 356.115 263.017C350.919 263.017 348.191 264.725 345.784 266.232C343.474 267.68 341.48 268.929 337.237 268.929C332.997 268.929 331.003 267.68 328.694 266.232C326.286 264.725 321.661 263 316.464 263L317.899 267.003C322.141 267.003 324.599 268.208 326.909 269.655C329.315 271.161 332.042 272.87 337.237 272.87C342.435 272.87 345.162 271.161 347.567 269.655C349.879 268.208 351.873 266.959 356.115 266.959C360.357 266.959 362.353 268.208 364.663 269.655C367.069 271.161 369.797 272.87 374.992 272.87C380.188 272.87 382.919 271.161 385.324 269.655C387.633 268.208 389.627 266.959 393.87 266.959C398.113 266.959 400.107 268.208 402.417 269.655C404.825 271.161 407.551 272.87 412.748 272.87C417.946 272.87 420.673 271.161 423.08 269.655C425.39 268.208 427.386 266.959 431.629 266.959C435.873 266.959 437.867 268.208 440.178 269.655C442.584 271.161 445.755 273.008 450.955 273.008C450.955 273.008 456.568 268.997 452.325 268.997C448.083 268.997 444.271 267.68 441.961 266.232C439.555 264.725 436.825 263.017 431.629 263.017ZM418.002 283.572C415.901 285.018 414.088 286.268 410.23 286.268C406.374 286.268 404.562 285.018 402.462 283.572C400.273 282.064 397.794 280.356 393.069 280.356C388.346 280.356 385.866 282.064 383.679 283.572C381.578 285.018 379.765 286.268 375.909 286.268C372.053 286.268 370.24 285.018 368.14 283.572C365.953 282.064 363.473 280.356 358.748 280.356C354.026 280.356 351.545 282.064 349.357 283.572C347.258 285.018 345.445 286.268 341.589 286.268C337.734 286.268 335.921 285.018 333.82 283.572C331.634 282.064 327.091 279.997 322.367 279.997L323.857 284.006C327.713 284.006 330.1 285.547 332.199 286.995C334.387 288.501 336.865 290.209 341.589 290.209C346.312 290.209 348.792 288.501 350.979 286.993C353.08 285.547 354.892 284.297 358.748 284.297C362.605 284.297 364.419 285.547 366.518 286.995C368.706 288.501 371.186 290.209 375.909 290.209C380.634 290.209 383.113 288.501 385.3 286.993C387.4 285.547 389.214 284.297 393.069 284.297C396.926 284.297 398.74 285.547 400.839 286.995C403.028 288.501 405.507 290.209 410.23 290.209C414.956 290.209 417.434 288.501 419.623 286.995C421.722 285.547 423.537 284.297 427.393 284.297C431.251 284.297 433.064 285.547 435.165 286.993C437.351 288.501 439.831 290.209 444.558 290.209L445.867 286.487C442.01 286.487 438.885 285.018 436.786 283.572C434.598 282.064 432.118 280.356 427.393 280.356C422.668 280.356 420.188 282.064 418.002 283.572ZM440.355 302.99L438.909 307C434.646 307 432.192 305.292 430.216 303.784C428.322 302.338 426.686 301.089 423.204 301.089C419.724 301.089 418.088 302.338 416.192 303.786C414.22 305.292 411.981 307 407.718 307C403.455 307 401.217 305.292 399.244 303.786C397.349 302.338 395.712 301.089 392.232 301.089C388.752 301.089 387.117 302.338 385.222 303.784C383.248 305.292 381.01 307 376.748 307C372.486 307 370.248 305.292 368.274 303.786C366.378 302.338 364.742 301.089 361.263 301.089C357.783 301.089 356.148 302.338 354.252 303.784C352.278 305.292 350.041 307 345.777 307C341.515 307 339.278 305.292 337.304 303.786C335.41 302.338 333.441 301.008 329.961 301.008L328.591 297.018C332.853 297.018 336.795 298.855 338.769 300.363C340.663 301.81 342.298 303.059 345.777 303.059C349.257 303.059 350.893 301.81 352.788 300.363C354.762 298.855 356.999 297.147 361.263 297.147C365.526 297.147 367.763 298.855 369.737 300.363C371.632 301.81 373.269 303.059 376.748 303.059C380.228 303.059 381.864 301.81 383.758 300.363C385.731 298.855 387.969 297.147 392.232 297.147C396.495 297.147 398.732 298.855 400.706 300.363C402.602 301.81 404.238 303.059 407.718 303.059C411.198 303.059 412.835 301.81 414.73 300.363C416.703 298.855 418.941 297.147 423.204 297.147C427.467 297.147 429.707 298.855 431.681 300.363C433.575 301.81 436.875 302.99 440.355 302.99Z" fill="#143642"/>
</g>
<mask id="mask1_0_335" style="mask-type:alpha" maskUnits="userSpaceOnUse" x="300" y="200" width="170" height="33">
<path fill-rule="evenodd" clip-rule="evenodd" d="M300.952 200.717H470V232.482H300.952V200.717Z" fill="white"/>
</mask>
<g mask="url(#mask1_0_335)">
<path fill-rule="evenodd" clip-rule="evenodd" d="M470.001 218.53C470.001 210.825 432.158 200.717 385.476 200.717C338.795 200.717 300.952 210.825 300.952 218.53C300.952 226.236 338.795 232.482 385.476 232.482C432.158 232.482 470.001 226.236 470.001 218.53Z" fill="#D4B057"/>
</g>
<path fill-rule="evenodd" clip-rule="evenodd" d="M385.501 205C342.146 205 307 211.716 307 219.999C307 228.284 342.146 235 385.501 235C428.856 235 464 228.284 464 219.999C464 211.716 428.856 205 385.501 205Z" fill="#84734E"/>
<path fill-rule="evenodd" clip-rule="evenodd" d="M404.249 177.163L405.887 180.646C405.928 180.732 406.007 180.791 406.097 180.806L409.762 181.364C409.99 181.398 410.081 181.693 409.915 181.862L407.264 184.573C407.198 184.639 407.17 184.735 407.185 184.831L407.81 188.658C407.849 188.896 407.61 189.078 407.407 188.966L404.13 187.158C404.049 187.114 403.951 187.114 403.87 187.158L400.593 188.966C400.389 189.078 400.151 188.896 400.189 188.658L400.815 184.831C400.832 184.735 400.8 184.639 400.736 184.573L398.085 181.862C397.919 181.693 398.01 181.398 398.24 181.364L401.902 180.806C401.993 180.791 402.072 180.732 402.111 180.646L403.75 177.163C403.853 176.946 404.147 176.946 404.249 177.163Z" fill="#843B62"/>
<path fill-rule="evenodd" clip-rule="evenodd" d="M385.269 149.103L387.666 151.983C387.726 152.055 387.817 152.092 387.91 152.085L391.691 151.784C391.928 151.765 392.082 152.02 391.953 152.214L389.898 155.337C389.848 155.414 389.839 155.512 389.875 155.596L391.336 159.027C391.427 159.24 391.228 159.463 391 159.404L387.331 158.453C387.241 158.43 387.144 158.452 387.073 158.511L384.194 160.933C384.015 161.083 383.738 160.966 383.724 160.736L383.513 157.025C383.508 156.934 383.457 156.85 383.377 156.802L380.137 154.868C379.935 154.748 379.962 154.453 380.183 154.369L383.72 153.026C383.807 152.994 383.872 152.92 383.895 152.831L384.769 149.214C384.824 148.99 385.12 148.924 385.269 149.103Z" fill="#843B62"/>
<path fill-rule="evenodd" clip-rule="evenodd" d="M375.269 170.103L377.666 172.983C377.726 173.055 377.817 173.093 377.91 173.085L381.691 172.785C381.928 172.766 382.082 173.019 381.953 173.214L379.898 176.337C379.848 176.415 379.839 176.512 379.875 176.597L381.336 180.026C381.427 180.239 381.228 180.463 381 180.404L377.331 179.453C377.241 179.429 377.144 179.452 377.073 179.511L374.194 181.932C374.015 182.083 373.738 181.967 373.724 181.735L373.513 178.025C373.508 177.934 373.457 177.851 373.377 177.802L370.137 175.868C369.935 175.748 369.962 175.453 370.183 175.369L373.72 174.026C373.807 173.994 373.872 173.92 373.895 173.831L374.769 170.214C374.824 169.99 375.12 169.924 375.269 170.103Z" fill="#843B62"/>
<path fill-rule="evenodd" clip-rule="evenodd" d="M359.954 131.185L363.489 135.668C363.589 135.795 363.743 135.863 363.902 135.85L369.478 135.382C369.876 135.348 370.139 135.801 369.922 136.149L366.89 141.011C366.804 141.149 366.789 141.322 366.85 141.473L369.006 146.812C369.159 147.194 368.822 147.591 368.437 147.486L363.029 146.006C362.875 145.965 362.711 146.003 362.59 146.111L358.346 149.879C358.043 150.148 357.573 149.941 357.55 149.528L357.239 143.752C357.23 143.588 357.144 143.439 357.01 143.354L352.232 140.345C351.889 140.129 351.936 139.602 352.308 139.453L357.525 137.362C357.673 137.303 357.783 137.173 357.819 137.012L359.11 131.385C359.203 130.982 359.703 130.863 359.954 131.185Z" fill="#843B62"/>
<path fill-rule="evenodd" clip-rule="evenodd" d="M340.954 162.184L344.489 166.668C344.59 166.796 344.744 166.863 344.902 166.85L350.478 166.381C350.877 166.348 351.139 166.801 350.922 167.15L347.89 172.011C347.805 172.149 347.789 172.322 347.851 172.473L350.005 177.812C350.159 178.194 349.822 178.591 349.437 178.486L344.029 177.007C343.875 176.965 343.711 177.005 343.591 177.11L339.346 180.879C339.043 181.148 338.573 180.941 338.55 180.528L338.24 174.752C338.23 174.588 338.144 174.439 338.009 174.354L333.232 171.344C332.89 171.129 332.935 170.602 333.308 170.454L338.524 168.363C338.673 168.304 338.783 168.172 338.82 168.013L340.111 162.384C340.204 161.981 340.702 161.864 340.954 162.184Z" fill="#843B62"/>
<path fill-rule="evenodd" clip-rule="evenodd" d="M322.531 98.1665L329.54 103.672C329.739 103.829 330.002 103.878 330.246 103.804L338.795 101.201C339.405 101.015 339.965 101.604 339.744 102.198L336.628 110.508C336.54 110.744 336.573 111.007 336.719 111.214L341.858 118.468C342.226 118.988 341.834 119.698 341.196 119.672L332.26 119.302C332.007 119.292 331.764 119.406 331.612 119.607L326.239 126.694C325.857 127.201 325.053 127.051 324.881 126.441L322.473 117.902C322.406 117.66 322.222 117.467 321.982 117.386L313.522 114.51C312.916 114.304 312.812 113.501 313.345 113.15L320.792 108.242C321.004 108.103 321.133 107.87 321.138 107.617L321.281 98.7533C321.292 98.1203 322.031 97.7731 322.531 98.1665Z" fill="#843B62"/>
<path fill-rule="evenodd" clip-rule="evenodd" d="M299.531 141.166L306.54 146.672C306.739 146.828 307.002 146.878 307.246 146.804L315.795 144.201C316.405 144.015 316.965 144.604 316.744 145.198L313.628 153.508C313.54 153.744 313.573 154.007 313.719 154.214L318.858 161.468C319.226 161.988 318.834 162.698 318.196 162.672L309.26 162.302C309.007 162.292 308.764 162.406 308.612 162.607L303.239 169.694C302.855 170.201 302.052 170.051 301.879 169.441L299.473 160.902C299.404 160.66 299.221 160.467 298.982 160.386L290.522 157.51C289.916 157.304 289.812 156.501 290.345 156.15L297.792 151.242C298.003 151.103 298.133 150.87 298.138 150.617L298.281 141.753C298.291 141.12 299.031 140.773 299.531 141.166Z" fill="#843B62"/>
<path fill-rule="evenodd" clip-rule="evenodd" d="M263.76 48.2934L276.087 57.9744C276.437 58.2497 276.901 58.3373 277.328 58.2066L292.362 53.6281C293.437 53.3008 294.423 54.3372 294.031 55.3813L288.551 69.9961C288.397 70.411 288.457 70.8753 288.714 71.2369L297.752 83.9969C298.396 84.909 297.707 86.1587 296.585 86.113L280.871 85.4622C280.425 85.4444 279.998 85.6449 279.73 85.9988L270.282 98.462C269.606 99.3538 268.194 99.09 267.892 98.0167L263.659 83.001C263.539 82.5747 263.214 82.2335 262.793 82.0914L247.917 77.0346C246.854 76.673 246.67 75.2597 247.605 74.6432L260.702 66.0126C261.074 65.7665 261.3 65.3567 261.308 64.9139L261.561 49.3248C261.58 48.211 262.88 47.6007 263.76 48.2934Z" fill="#843B62"/>
<path fill-rule="evenodd" clip-rule="evenodd" d="M238.76 123.293L251.087 132.974C251.437 133.249 251.901 133.337 252.328 133.206L267.362 128.628C268.437 128.3 269.423 129.337 269.031 130.381L263.551 144.996C263.397 145.411 263.457 145.875 263.714 146.237L272.752 158.997C273.396 159.909 272.707 161.159 271.585 161.113L255.872 160.462C255.425 160.444 254.998 160.645 254.73 160.999L245.282 173.462C244.606 174.354 243.194 174.09 242.892 173.017L238.659 158.001C238.539 157.575 238.216 157.233 237.793 157.091L222.917 152.034C221.854 151.673 221.67 150.259 222.605 149.643L235.702 141.012C236.074 140.766 236.301 140.356 236.308 139.914L236.562 124.324C236.58 123.21 237.88 122.601 238.76 123.293Z" fill="#843B62"/>
<path fill-rule="evenodd" clip-rule="evenodd" d="M163.963 0.459783L183.057 15.6466C183.6 16.0785 184.318 16.2141 184.979 16.0101L208.266 8.82779C209.93 8.31477 211.458 9.94125 210.852 11.5791L202.366 34.5044C202.124 35.1542 202.217 35.8826 202.615 36.4501L216.614 56.4657C217.615 57.8958 216.547 59.858 214.808 59.7845L190.468 58.7648C189.776 58.7369 189.116 59.051 188.7 59.6059L174.065 79.1566C173.018 80.555 170.831 80.1408 170.362 78.4573L163.807 54.9038C163.621 54.2349 163.119 53.7004 162.465 53.4762L139.42 45.5439C137.773 44.9777 137.488 42.7597 138.938 41.7919L159.227 28.2543C159.802 27.8705 160.154 27.2258 160.164 26.5316L160.557 2.07866C160.585 0.330577 162.598 -0.625804 163.963 0.459783Z" fill="#843B62"/>
<path fill-rule="evenodd" clip-rule="evenodd" d="M149.963 124.46L169.058 139.647C169.599 140.079 170.318 140.214 170.979 140.01L194.266 132.828C195.93 132.316 197.459 133.941 196.853 135.579L188.365 158.503C188.124 159.154 188.217 159.883 188.615 160.452L202.614 180.466C203.615 181.896 202.546 183.858 200.808 183.785L176.467 182.766C175.776 182.737 175.116 183.051 174.701 183.606L160.066 203.157C159.018 204.554 156.831 204.141 156.362 202.458L149.806 178.903C149.621 178.235 149.118 177.701 148.466 177.477L125.419 169.544C123.773 168.978 123.488 166.761 124.939 165.792L145.226 152.255C145.802 151.871 146.154 151.226 146.164 150.533L146.558 126.079C146.585 124.331 148.598 123.374 149.963 124.46Z" fill="#843B62"/>
<path fill-rule="evenodd" clip-rule="evenodd" d="M40.4432 25.198L70.188 48.8682C71.032 49.5402 72.1518 49.7515 73.1817 49.4333L109.457 38.2422C112.051 37.4417 114.431 39.9757 113.487 42.5287L100.264 78.258C99.8885 79.2711 100.035 80.4064 100.654 81.2922L122.462 112.485C124.02 114.715 122.357 117.772 119.648 117.659L81.7314 116.071C80.6546 116.026 79.6259 116.516 78.9781 117.38L56.1811 147.852C54.5501 150.03 51.1426 149.386 50.4125 146.761L40.2002 110.051C39.9105 109.01 39.1285 108.177 38.1087 107.826L2.21196 95.464C-0.354082 94.5807 -0.798205 91.1253 1.46163 89.6171L33.0664 68.5178C33.9636 67.9184 34.5102 66.9155 34.5266 65.8337L35.139 27.7218C35.182 24.9982 38.3162 23.5066 40.4432 25.198Z" fill="#843B62"/>
</svg>
