<svg width="80" height="80" viewBox="0 0 80 80" fill="none" xmlns="http://www.w3.org/2000/svg">
<circle cx="40" cy="40" r="40" fill="#E7CFF5"/>
<path fill-rule="evenodd" clip-rule="evenodd" d="M49.2987 29.0002C43.3964 29.0105 38.6141 33.7927 38.6039 39.6951C38.5935 39.7566 38.5935 39.8195 38.6039 39.8811C38.5909 39.9736 38.5909 40.0675 38.6039 40.1601C38.3878 43.8693 35.612 46.9245 31.9404 47.4943C28.2689 48.0641 24.6976 45.994 23.3674 42.5248C22.0372 39.0556 23.3089 35.1285 26.4202 33.0975C29.5315 31.0666 33.6383 31.4827 36.2789 34.0966C36.6267 34.4698 37.1504 34.6234 37.6447 34.4972C38.1389 34.371 38.5249 33.985 38.6511 33.4908C38.7773 32.9965 38.6237 32.4728 38.2505 32.125C34.8249 28.7064 29.5305 28.0142 25.3412 30.4372C21.1519 32.8603 19.1118 37.7947 20.3669 42.4687C21.622 47.1427 25.8594 50.3914 30.699 50.3899C36.4215 50.3854 41.1264 45.8771 41.3752 40.1601C41.3842 40.0735 41.3842 39.9862 41.3752 39.8997C41.3858 39.8194 41.3858 39.7381 41.3752 39.6579C41.3958 35.2995 44.9402 31.78 49.2986 31.7902C53.6571 31.8005 57.1849 35.3366 57.1849 39.695C57.1849 44.0535 53.6572 47.5897 49.2987 47.6C47.329 47.6053 45.4296 46.8681 43.9792 45.5354C43.4305 45.0015 42.5564 45.0015 42.0076 45.5354C41.7283 45.8127 41.579 46.1951 41.5967 46.5883C41.6144 46.9815 41.7975 47.3489 42.1006 47.6C45.6336 50.8195 50.8739 51.3038 54.937 48.7864C59.0002 46.2689 60.8996 41.361 59.5896 36.7641C58.2797 32.1673 54.0786 28.9978 49.2987 29.0002Z" fill="#700AAB"/>
</svg>
