<svg width="80" height="80" viewBox="0 0 80 80" fill="none" xmlns="http://www.w3.org/2000/svg">
<circle cx="40" cy="40" r="40" fill="#E7CFF5"/>
<path fill-rule="evenodd" clip-rule="evenodd" d="M52.54 36.16V24.88C52.54 22.1849 50.3552 20 47.66 20H32.34C29.6449 20 27.46 22.1849 27.46 24.88V36.16C25.927 37.1896 25.0052 38.9133 25 40.76V54.46C25 57.5119 27.4682 59.989 30.52 60H49.48C52.5318 59.989 55 57.5119 55 54.46V40.76C54.9984 38.9124 54.0758 37.1872 52.54 36.16ZM30.54 24.88C30.551 23.8495 31.3895 23.0199 32.42 23.02H47.74C48.7705 23.0199 49.609 23.8495 49.62 24.88V35.24H30.46L30.54 24.88ZM51.98 54.46C51.9853 55.1265 51.7243 55.7675 51.2549 56.2407C50.7855 56.7139 50.1465 56.98 49.48 56.98H30.52C29.8535 56.98 29.2145 56.7139 28.7451 56.2407C28.2757 55.7675 28.0147 55.1265 28.02 54.46V40.76C28.02 39.376 29.1361 38.251 30.52 38.24H49.48C50.8639 38.251 51.98 39.376 51.98 40.76V54.46Z" fill="#700AAB"/>
<path fill-rule="evenodd" clip-rule="evenodd" d="M42.52 45.4999C42.4033 44.1895 41.3055 43.1851 39.99 43.1851C38.6744 43.1851 37.5766 44.1895 37.46 45.4999C37.4678 46.4396 37.9899 47.2994 38.82 47.7399L37.46 51.8799H42.52L41.18 47.7399C42.0055 47.2974 42.5205 46.4365 42.52 45.4999Z" fill="#700AAB"/>
</svg>
