<svg width="80" height="80" viewBox="0 0 80 80" fill="none" xmlns="http://www.w3.org/2000/svg">
<circle cx="40" cy="40" r="40" fill="#E7CFF5"/>
<path fill-rule="evenodd" clip-rule="evenodd" d="M54.86 31.58L53.32 28.52L54.84 25.7C54.9508 25.4836 55.0058 25.243 55 25C55 22.6992 53.1407 20.831 50.84 20.82H37C36.8325 18.6593 35.0271 16.9935 32.86 17H29.16C26.8593 17.011 25 18.8792 25 21.18V52.82C25 55.1207 26.8593 56.989 29.16 57H50.84C53.1407 56.989 55 55.1207 55 52.82C54.9983 52.4636 54.8626 52.121 54.62 51.86L53.44 50.58L54.86 47.72C55.0388 47.326 55.0388 46.874 54.86 46.48L53.32 43.38L54.86 40.28C55.0397 39.8792 55.0397 39.4208 54.86 39.02L53.32 35.94L54.86 32.84C55.0397 32.4392 55.0397 31.9808 54.86 31.58ZM29.16 19.8H32.86C33.6222 19.8 34.24 20.4178 34.24 21.18V46.68C32.3095 45.2946 29.7105 45.2946 27.78 46.68V21.18C27.78 20.814 27.9254 20.463 28.1842 20.2042C28.443 19.9454 28.794 19.8 29.16 19.8ZM28.14 51.32C28.14 50.1533 28.8439 49.1019 29.9225 48.6573C31.0012 48.2128 32.2415 48.4629 33.0636 49.2907C33.8856 50.1185 34.1271 51.3605 33.675 52.436C33.2229 53.5116 32.1666 54.2081 31 54.2C30.238 54.2 29.5075 53.8959 28.9706 53.3552C28.4336 52.8146 28.1347 52.082 28.14 51.32ZM50.52 29.12L52.06 32.22L50.52 35.3C50.3403 35.7008 50.3403 36.1592 50.52 36.56L52.06 39.66L50.52 42.76C50.3412 43.154 50.3412 43.606 50.52 44L52.06 47.1L50.52 50.2C50.2592 50.718 50.3556 51.3443 50.76 51.76L52.14 53.28C51.9503 53.8348 51.4264 54.2056 50.84 54.2H37V23.64H50.82C51.4722 23.6508 52.0331 24.1045 52.18 24.74L50.52 27.82C50.3195 28.2301 50.3195 28.7098 50.52 29.12Z" fill="#700AAB"/>
</svg>
