<svg width="47" height="40" viewBox="0 0 47 40" fill="none" xmlns="http://www.w3.org/2000/svg">
<path fill-rule="evenodd" clip-rule="evenodd" d="M11.2803 22L18 28.7095L13.7197 33L7 26.2905L11.2803 22ZM46.5132 10.3733L44.795 12.1239C44.4926 12.4243 44.09 12.6013 43.6653 12.6207H41.9235V14.3949C41.9113 15.2821 41.2055 16.0019 40.323 16.0272H38.5578V17.8014C38.5227 18.6789 37.8297 19.3857 36.9573 19.4337H35.192V21.208C35.1674 22.099 34.4545 22.8155 33.568 22.8403H31.8263V24.6145C31.7912 25.4919 31.0981 26.1987 30.2258 26.2468H28.4605V28.0447C28.4471 28.4661 28.2696 28.8654 27.9662 29.1566L27.4484 29.7007L26.248 30.9071L18.7633 38.5482C16.8036 40.4839 13.662 40.4839 11.7023 38.5482L1.41671 28.2103C-0.472236 26.2256 -0.472236 23.0981 1.41671 21.1133L6.12407 16.382C7.5261 14.9428 9.64877 14.4863 11.514 15.2229C11.9007 14.1422 12.6497 13.2305 13.6323 12.6443L33.8269 0.816045C35.744 -0.442159 38.267 -0.227586 39.9465 1.33649L46.4897 7.96032C46.8119 8.27675 46.9955 8.70912 46.9999 9.16189C47.0043 9.61465 46.8292 10.0506 46.5132 10.3733ZM22 30.3092L12.3958 20.3795L10.5743 18.5101C10.2629 18.1838 9.8366 18 9.39157 18C8.94654 18 8.52024 18.1838 8.20879 18.5101L3.47767 23.3657C2.84078 24.043 2.84078 25.1162 3.47767 25.7935L13.7205 36.5001C14.3753 37.1666 15.4313 37.1666 16.0861 36.5001L22 30.3092ZM43 8.95815L37.7002 3.51769C37.1849 2.96486 36.3568 2.83966 35.7012 3.21544L15.7572 14.9798C15.3338 15.2219 15.0558 15.6563 15.0134 16.1423C14.9473 16.6583 15.1282 17.1752 15.5015 17.5373L25.0086 27V24.3495C25.0549 23.4834 25.7466 22.7916 26.6125 22.7453H28.3326V20.9783C28.3673 20.116 29.0517 19.4213 29.9132 19.3741H31.6566V17.6303C31.6318 17.1479 31.8226 16.6793 32.1773 16.3515C32.532 16.0236 33.014 15.8703 33.4929 15.9331H35.2363V14.1661C35.2826 13.3 35.9743 12.6082 36.8402 12.5619H38.5603V10.8181C38.4877 10.3269 38.6433 9.82932 38.9828 9.46702C39.3224 9.10473 39.8088 8.91733 40.3036 8.95815H43Z" fill="#700AAB"/>
</svg>
