<svg width="80" height="80" viewBox="0 0 80 80" fill="none" xmlns="http://www.w3.org/2000/svg">
<circle cx="40" cy="40" r="40" fill="#E7CFF5"/>
<path fill-rule="evenodd" clip-rule="evenodd" d="M56.66 45.132C56.648 46.6647 55.398 47.9023 53.86 47.9023H46.6V32.9547H53.86C55.398 32.9547 56.648 34.1903 56.66 35.725V45.132ZM49.4 56.57C47.922 56.5162 46.768 55.2765 46.822 53.8037C46.876 52.3288 48.12 51.1789 49.6 51.2347C51.032 51.2865 52.168 52.4524 52.18 53.8814C52.136 55.3742 50.898 56.5521 49.4 56.5321V56.57ZM43.26 47.9023H26.14C24.602 47.9023 23.35 46.6647 23.34 45.132V26.0987C23.35 24.564 24.602 23.3284 26.14 23.3284H40.46C41.998 23.3284 43.248 24.564 43.26 26.0987V47.9023ZM33.1 53.8814C33.078 55.3782 31.842 56.572 30.34 56.5501H30.32C28.84 56.5501 27.64 55.3563 27.64 53.8814C27.64 52.4046 28.84 51.2108 30.32 51.2108C31.822 51.1769 33.066 52.3627 33.1 53.8595V53.8814ZM53.86 29.6263H46.6V26.0987C46.6 22.7304 43.86 20 40.48 20H40.46H26.14C22.756 20 20.01 22.7265 20 26.0987V45.0902C20.016 47.994 22.068 50.4873 24.92 51.0693C24.436 51.9283 24.182 52.8969 24.18 53.8814C24.182 57.2596 26.932 59.998 30.322 59.998C33.712 59.996 36.458 57.2576 36.46 53.8814C36.456 52.9487 36.222 52.0319 35.78 51.2108H44C43.536 52.0259 43.284 52.9427 43.26 53.8814C43.26 57.2596 46.01 60 49.4 60C52.79 60 55.538 57.2596 55.538 53.8814C55.532 52.9088 55.278 51.9581 54.8 51.1111C57.772 50.6587 59.974 48.1256 60 45.132V35.725C59.988 32.3528 57.244 29.6263 53.86 29.6263Z" fill="#700AAB"/>
</svg>
