<svg width="80" height="80" viewBox="0 0 80 80" fill="none" xmlns="http://www.w3.org/2000/svg">
<circle cx="40" cy="40" r="40" fill="#E7CFF5"/>
<path fill-rule="evenodd" clip-rule="evenodd" d="M55.32 38.7822H52.18C52.5242 38.1711 52.7098 37.4835 52.72 36.7822V33.4822C52.6939 32.2603 52.1805 31.0995 51.294 30.2581C50.4076 29.4167 49.2216 28.9645 48 29.0022H28C25.5013 28.9907 23.4545 30.9841 23.4 33.4822V36.7422C23.4215 37.4471 23.621 38.1351 23.98 38.7422C21.7056 39.0338 20.0015 40.9691 20 43.2622V46.5222C20.0262 47.737 20.5341 48.8915 21.4118 49.7318C22.2896 50.572 23.4652 51.029 24.68 51.0022H55.32C56.5348 51.029 57.7104 50.572 58.5882 49.7318C59.4659 48.8915 59.9738 47.737 60 46.5222V43.2622C59.9738 42.0474 59.4659 40.8928 58.5882 40.0526C57.7104 39.2124 56.5348 38.7554 55.32 38.7822ZM39.08 44.8822C39.1878 42.8648 40.9018 41.3115 42.92 41.4022C44.9382 41.3115 46.6522 42.8648 46.76 44.8822C46.6628 46.9075 44.9457 48.4727 42.92 48.3822C40.8943 48.4727 39.1772 46.9075 39.08 44.8822ZM53.6 48.3822C51.5743 48.4727 49.8572 46.9075 49.76 44.8822C49.8678 42.8648 51.5818 41.3115 53.6 41.4022C55.6182 41.3115 57.3322 42.8648 57.44 44.8822C57.3428 46.9075 55.6257 48.4727 53.6 48.3822ZM46.32 31.6222C48.3457 31.5317 50.0628 33.0968 50.16 35.1222C50.0522 37.1396 48.3382 38.6929 46.32 38.6022C44.3018 38.6929 42.5878 37.1396 42.48 35.1222C42.5772 33.0968 44.2943 31.5317 46.32 31.6222ZM26 33.4822C25.9893 32.9448 26.1952 32.4258 26.5715 32.042C26.9477 31.6583 27.4626 31.4421 28 31.4422H41.24C40.4072 32.4851 39.9682 33.7879 40 35.1222C40.0144 36.4739 40.519 37.7745 41.42 38.7822H28C27.4626 38.7823 26.9477 38.5661 26.5715 38.1823C26.1952 37.7985 25.9893 37.2795 26 36.7422V33.4822ZM24.68 48.5622C24.1291 48.5953 23.589 48.3993 23.1876 48.0206C22.7861 47.6418 22.559 47.1141 22.56 46.5622V43.2622C22.559 42.7103 22.7861 42.1825 23.1876 41.8038C23.589 41.4251 24.1291 41.2291 24.68 41.2622H38C37.9417 41.3318 37.8883 41.4053 37.84 41.4822L37.6 41.8022C37.48 42.0022 37.36 42.2022 37.26 42.4022L37.08 42.7622C36.98 43.0022 36.92 43.2422 36.84 43.4822C36.8463 43.5954 36.8463 43.7089 36.84 43.8222C36.7694 44.1849 36.7292 44.5528 36.72 44.9222C36.7281 45.2982 36.7683 45.6729 36.84 46.0422C36.8489 46.1553 36.8489 46.269 36.84 46.3822C36.8775 46.5908 36.9242 46.7977 36.98 47.0022L37.16 47.3822C37.2614 47.5823 37.3749 47.776 37.5 47.9622L37.74 48.3022C37.8185 48.3966 37.9055 48.4837 38 48.5622H24.68Z" fill="#700AAB"/>
</svg>
